<svg width="24" height="24" viewBox="0 0 24 24" fill="none" xmlns="http://www.w3.org/2000/svg">
<path d="M21.2293 13.8677C19.9133 16.0637 16.9603 19.7498 12.0003 19.7498C11.0373 19.7498 10.0863 19.6037 9.17433 19.3147C8.77933 19.1897 8.56129 18.7688 8.68629 18.3738C8.81029 17.9778 9.23521 17.7618 9.62721 17.8848C10.3922 18.1268 11.1903 18.2498 12.0003 18.2498C16.2223 18.2498 18.7903 15.0198 19.9443 13.0938C20.3523 12.4178 20.3523 11.5808 19.9463 10.9068C19.6003 10.3238 19.1772 9.72773 18.7202 9.17873C18.4552 8.85973 18.4994 8.38683 18.8184 8.12283C19.1384 7.85783 19.6103 7.90175 19.8753 8.21975C20.3813 8.82875 20.8512 9.49174 21.2332 10.1367C21.9262 11.2837 21.9263 12.7157 21.2293 13.8677ZM10.0632 14.9978L3.53028 21.5308C3.38428 21.6768 3.19225 21.7508 3.00025 21.7508C2.80825 21.7508 2.61622 21.6778 2.47022 21.5308C2.17722 21.2378 2.17722 20.7627 2.47022 20.4697L5.64527 17.2947C4.31727 16.1497 3.3523 14.8367 2.7693 13.8657C2.0753 12.7157 2.07525 11.2838 2.77125 10.1328C4.08725 7.93684 7.04025 4.25076 12.0003 4.25076C13.8353 4.25076 15.5653 4.76969 17.1553 5.78469L20.4692 2.47073C20.7622 2.17773 21.2373 2.17773 21.5303 2.47073C21.8233 2.76373 21.8233 3.23876 21.5303 3.53176L10.0652 14.9969C10.0652 14.9969 10.0652 14.9978 10.0642 14.9978C10.0632 14.9978 10.0632 14.9968 10.0632 14.9978ZM9.60914 13.3308L13.3313 9.60867C12.9293 9.38167 12.4783 9.25076 12.0003 9.25076C10.4843 9.25076 9.25123 10.4838 9.25123 12.0008C9.25123 12.4778 9.38314 12.9288 9.60914 13.3308ZM6.70729 16.2317L8.5193 14.4197C8.0243 13.7167 7.75123 12.8818 7.75123 11.9988C7.75123 9.6558 9.65725 7.7488 12.0003 7.7488C12.8843 7.7488 13.7182 8.02187 14.4212 8.51687L16.0523 6.88577C14.7873 6.14477 13.4323 5.74783 12.0003 5.74783C7.77825 5.74783 5.21016 8.97783 4.05616 10.9038C3.64816 11.5798 3.64821 12.4168 4.05421 13.0908C4.59121 13.9878 5.48329 15.2007 6.70729 16.2317ZM14.7083 12.4348C14.5283 13.5948 13.5943 14.5298 12.4363 14.7088C12.0273 14.7718 11.7463 15.1547 11.8093 15.5637C11.8673 15.9347 12.1863 16.1997 12.5493 16.1997C12.5873 16.1997 12.6263 16.1967 12.6643 16.1907C14.4913 15.9087 15.9082 14.4918 16.1902 12.6638C16.2532 12.2538 15.9732 11.8719 15.5632 11.8079C15.1632 11.7469 14.7713 12.0248 14.7083 12.4348Z" fill="#7B7D82"/>
</svg>
