<svg width="162" height="72" viewBox="0 0 162 72" fill="none" xmlns="http://www.w3.org/2000/svg">
<path d="M48.4896 37.6637L16.9911 5.76022L0 22.5356L31.4985 54.4391L48.4896 37.6637Z" fill="url(#paint0_linear_1_12044)"/>
<path d="M151.028 61.4561C144.416 68.2552 135.625 72 126.275 72C116.925 72 108.134 68.2552 101.523 61.4571C101.523 61.4561 68.856 27.8467 68.856 27.8467C64.4835 23.3511 57.3702 23.3511 52.9987 27.8467C50.8806 30.0239 49.7146 32.9201 49.7146 36C49.7146 39.0799 50.8806 41.9761 52.9987 44.1533C55.1849 46.4016 58.0559 47.5253 60.9268 47.5253C63.7978 47.5253 66.6698 46.4006 68.855 44.1533L71.1734 41.769L87.9943 59.076L85.68 61.4561C79.0685 68.2552 70.2781 72 60.9268 72C51.5766 72 42.7851 68.2552 36.1737 61.4561C29.5623 54.6558 25.9209 45.6157 25.9209 36C25.9209 26.3843 29.5623 17.3431 36.1737 10.5439C42.7851 3.74475 51.5766 0 60.9268 0C70.277 0 79.0675 3.74369 85.6789 10.5429L110.42 35.9979L118.323 44.1299L118.346 44.1533C122.718 48.6489 129.832 48.6489 134.203 44.1533C136.321 41.9761 137.487 39.0799 137.487 36C137.487 32.9201 136.321 30.0239 134.203 27.8467C129.832 23.3511 122.718 23.3511 118.346 27.8467L116.027 30.231L99.2065 12.924L101.522 10.5439C108.133 3.74475 116.924 0 126.274 0C135.624 0 144.416 3.74475 151.027 10.5439C157.64 17.3431 161.281 26.3843 161.281 36C161.281 45.6157 157.64 54.6558 151.028 61.4561Z" fill="url(#paint1_linear_1_12044)"/>
<defs>
<linearGradient id="paint0_linear_1_12044" x1="8.49553" y1="14.1479" x2="39.9941" y2="46.0514" gradientUnits="userSpaceOnUse">
<stop stop-color="#2563EB"/>
<stop offset="1" stop-color="#6C007E"/>
</linearGradient>
<linearGradient id="paint1_linear_1_12044" x1="93.6009" y1="72" x2="93.6009" y2="0" gradientUnits="userSpaceOnUse">
<stop stop-color="#2563EB"/>
<stop offset="1" stop-color="#6C007E"/>
</linearGradient>
</defs>
</svg>
