<svg width="56" height="54" viewBox="0 0 56 54" fill="none" xmlns="http://www.w3.org/2000/svg">
<g opacity="0.5">
<path d="M0.9185 48H2.3815V42.621L6.16 48H7.546V40.2725H6.083V45.4975L2.42 40.2725H0.9185V48ZM12.9308 48.132C15.1803 48.132 16.9293 46.3555 16.9293 44.128C16.9293 41.8895 15.1803 40.135 12.9308 40.135C10.6813 40.135 8.93234 41.8895 8.93234 44.128C8.93234 46.3555 10.6813 48.132 12.9308 48.132ZM10.4448 44.1335C10.4448 42.6815 11.5833 41.565 12.9308 41.565C14.2783 41.565 15.4168 42.676 15.4168 44.1335C15.4168 45.5855 14.2838 46.702 12.9308 46.702C11.5888 46.702 10.4448 45.5855 10.4448 44.1335ZM20.9419 48H22.4324V40.2725H20.9419V48ZM23.8045 48H25.306L25.889 42.6595L27.6435 48H28.936L30.6905 42.6595L31.2515 48.0055H32.7585L31.8125 40.2725H30.1295L28.2815 45.921L26.428 40.2725H24.745L23.8045 48ZM33.3133 48H34.8588L35.3978 46.515H38.6208L39.1653 48H40.7053L37.6748 40.2615H36.3548L33.3133 48ZM35.8653 45.2445L36.9378 42.2965L37.0093 42.0325L37.0808 42.2965L38.1588 45.2445H35.8653ZM44.8674 48.1375C45.8409 48.1375 46.7979 47.8185 47.5019 47.274V44.469H46.0884V46.4875C45.7034 46.658 45.2854 46.7405 44.8674 46.7405C43.5254 46.7405 42.3759 45.58 42.3759 44.128C42.3759 42.6815 43.5199 41.5595 44.8674 41.5595C45.5274 41.5595 46.1434 41.84 46.5944 42.214L47.4689 41.081C46.7814 40.487 45.8684 40.1295 44.8674 40.1295C42.6179 40.1295 40.8689 41.895 40.8689 44.1225C40.8689 46.35 42.6179 48.1375 44.8674 48.1375ZM48.979 48H54.578V46.636H50.4695V44.7165H53.687V43.4295H50.4695V41.6365H54.4955V40.2725H48.979V48Z" fill="#8E91AE"/>
<path d="M26.8394 26.7189C24.2993 26.7189 22.9785 25.8012 22.9785 23.9657C22.9785 21.8242 24.5025 20.9065 27.7538 20.9065H31.4115C31.6147 20.9065 31.7163 21.0085 31.7163 21.2124V22.9459C31.7163 25.4953 29.989 26.7189 26.8394 26.7189ZM36.1868 30.4919C36.4916 30.4919 36.6948 30.288 36.6948 29.982V15.4C36.6948 9.89346 34.1547 7.5481 27.3474 7.5481C23.6897 7.5481 21.2513 8.46585 19.4224 9.68952C19.2192 9.79149 19.2192 10.0974 19.3208 10.3014L21.0481 13.3605C21.1497 13.5645 21.4545 13.6664 21.6577 13.4625C22.6737 12.6467 24.2993 11.9329 26.7378 11.9329C30.497 11.9329 31.7163 13.0546 31.7163 15.6039V16.6236C31.7163 16.8276 31.6147 16.9296 31.4115 16.9296H26.941C21.4545 16.9296 18 19.173 18 24.0676C18 28.7584 21.4545 30.8998 25.5185 30.8998C28.6682 30.8998 30.8018 29.8801 31.8179 28.2485V29.8801C31.8179 30.186 32.0211 30.3899 32.3259 30.3899H36.1868V30.4919Z" fill="#8E91AE"/>
<path d="M19.7272 4.58876H36.2884C36.5932 4.58876 36.7964 4.38482 36.7964 4.0789V0.509863C36.7964 0.203945 36.5932 0 36.2884 0H19.7272C19.4224 0 19.2192 0.203945 19.2192 0.509863V4.18087C19.2192 4.38482 19.4224 4.58876 19.7272 4.58876Z" fill="#8E91AE"/>
</g>
</svg>
