<svg width="23" height="22" viewBox="0 0 23 22" fill="none" xmlns="http://www.w3.org/2000/svg">
<path d="M13.2299 2.50989L14.9899 6.02989C15.2299 6.51989 15.8699 6.98989 16.4099 7.07989L19.5999 7.60989C21.6399 7.94989 22.1199 9.42989 20.6499 10.8899L18.1699 13.3699C17.7499 13.7899 17.5199 14.5999 17.6499 15.1799L18.3599 18.2499C18.9199 20.6799 17.6299 21.6199 15.4799 20.3499L12.4899 18.5799C11.9499 18.2599 11.0599 18.2599 10.5099 18.5799L7.51991 20.3499C5.37991 21.6199 4.07991 20.6699 4.63991 18.2499L5.34991 15.1799C5.47991 14.5999 5.24991 13.7899 4.82991 13.3699L2.34991 10.8899C0.889909 9.42989 1.35991 7.94989 3.39991 7.60989L6.58991 7.07989C7.11991 6.98989 7.75991 6.51989 7.99991 6.02989L9.75991 2.50989C10.7199 0.599893 12.2799 0.599893 13.2299 2.50989Z" stroke="#616161" stroke-width="1.5" stroke-linecap="round" stroke-linejoin="round"/>
</svg>
