<svg width="25" height="24" viewBox="0 0 25 24" fill="none" xmlns="http://www.w3.org/2000/svg">
<path d="M18.9698 16.83L19.3598 19.99C19.4598 20.82 18.5698 21.4 17.8598 20.97L13.6698 18.48C13.2098 18.48 12.7599 18.45 12.3199 18.39C13.0599 17.52 13.4998 16.42 13.4998 15.23C13.4998 12.39 11.0398 10.09 7.99985 10.09C6.83985 10.09 5.76985 10.42 4.87985 11C4.84985 10.75 4.83984 10.5 4.83984 10.24C4.83984 5.68999 8.78985 2 13.6698 2C18.5498 2 22.4998 5.68999 22.4998 10.24C22.4998 12.94 21.1098 15.33 18.9698 16.83Z" stroke="#616161" stroke-width="1.5" stroke-linecap="round" stroke-linejoin="round"/>
<path d="M13.5 15.23C13.5 16.42 13.06 17.5201 12.32 18.3901C11.33 19.5901 9.76 20.36 8 20.36L5.39 21.91C4.95 22.18 4.39 21.81 4.45 21.3L4.7 19.3301C3.36 18.4001 2.5 16.91 2.5 15.23C2.5 13.47 3.44 11.9201 4.88 11.0001C5.77 10.4201 6.84 10.0901 8 10.0901C11.04 10.0901 13.5 12.39 13.5 15.23Z" stroke="#616161" stroke-width="1.5" stroke-linecap="round" stroke-linejoin="round"/>
</svg>
