<svg width="16" height="20" viewBox="0 0 16 20" fill="none" xmlns="http://www.w3.org/2000/svg">
<path d="M8.00903 8.75C5.66503 8.75 3.75903 6.843 3.75903 4.5C3.75903 2.157 5.66503 0.25 8.00903 0.25C10.353 0.25 12.259 2.157 12.259 4.5C12.259 6.843 10.353 8.75 8.00903 8.75ZM8.00903 1.75C6.49203 1.75 5.25903 2.983 5.25903 4.5C5.25903 6.017 6.49203 7.25 8.00903 7.25C9.52603 7.25 10.759 6.017 10.759 4.5C10.759 2.983 9.52503 1.75 8.00903 1.75ZM11.9969 19.75H4.00305C1.58305 19.75 0.25 18.425 0.25 16.019C0.25 13.358 1.756 10.25 6 10.25H10C14.244 10.25 15.75 13.357 15.75 16.019C15.75 18.425 14.4169 19.75 11.9969 19.75ZM6 11.75C2.057 11.75 1.75 15.017 1.75 16.019C1.75 17.583 2.42405 18.25 4.00305 18.25H11.9969C13.5759 18.25 14.25 17.583 14.25 16.019C14.25 15.018 13.943 11.75 10 11.75H6Z" fill="#A7A8AC"/>
</svg>
